{
    "asset": {
        "version": "2.0",
        "generator": "Open Asset Import Library (assimp v5.0.639693989)"
    },
    "accessors": [
        {
            "bufferView": 0,
            "byteOffset": 0,
            "componentType": 5126,
            "count": 56105,
            "type": "VEC3",
            "max": [
                0.902614414691925,
                0.2733894884586334,
                -0.25737500190734866
            ],
            "min": [
                -0.8854554295539856,
                -1.3618354797363282,
                -1.9180001020431519
            ]
        },
        {
            "bufferView": 1,
            "byteOffset": 0,
            "componentType": 5126,
            "count": 56105,
            "type": "VEC4",
            "max": [
                1.0,
                1.0,
                1.0,
                1.0
            ],
            "min": [
                0.0,
                0.0,
                0.0,
                1.0
            ]
        }
    ],
    "buffers": [
        {
            "byteLength": 1570940,
            "uri": "6emrqvqiizmn.bin"
        }
    ],
    "bufferViews": [
        {
            "buffer": 0,
            "byteOffset": 0,
            "byteLength": 673260,
            "target": 34962
        },
        {
            "buffer": 0,
            "byteOffset": 673260,
            "byteLength": 897680,
            "target": 34962
        }
    ],
    "materials": [
        {
            "name": "material",
            "pbrMetallicRoughness": {
                "metallicFactor": 0.0
            }
        }
    ],
    "meshes": [
        {
            "primitives": [
                {
                    "mode": 0,
                    "material": 0,
                    "attributes": {
                        "POSITION": 0,
                        "COLOR_0": 1
                    }
                }
            ]
        }
    ],
    "nodes": [
        {
            "mesh": 0
        }
    ],
    "scenes": [
        {
            "nodes": [
                0
            ]
        }
    ],
    "scene": 0
}