{
    "asset": {
        "version": "2.0",
        "generator": "Open Asset Import Library (assimp v5.0.639693989)"
    },
    "accessors": [
        {
            "bufferView": 0,
            "byteOffset": 0,
            "componentType": 5126,
            "count": 190354,
            "type": "VEC3",
            "max": [
                0.2553730309009552,
                0.4710649847984314,
                -0.16724999248981477
            ],
            "min": [
                -0.3729590177536011,
                -0.3958491384983063,
                -0.6857499480247498
            ]
        },
        {
            "bufferView": 1,
            "byteOffset": 0,
            "componentType": 5126,
            "count": 190354,
            "type": "VEC4",
            "max": [
                0.7333333492279053,
                0.7215686440467835,
                0.7333333492279053,
                1.0
            ],
            "min": [
                0.0,
                0.0,
                0.0,
                1.0
            ]
        }
    ],
    "buffers": [
        {
            "byteLength": 5329912,
            "uri": "8mof31ygmh09.bin"
        }
    ],
    "bufferViews": [
        {
            "buffer": 0,
            "byteOffset": 0,
            "byteLength": 2284248,
            "target": 34962
        },
        {
            "buffer": 0,
            "byteOffset": 2284248,
            "byteLength": 3045664,
            "target": 34962
        }
    ],
    "materials": [
        {
            "name": "material",
            "pbrMetallicRoughness": {
                "metallicFactor": 0.0
            }
        }
    ],
    "meshes": [
        {
            "primitives": [
                {
                    "mode": 0,
                    "material": 0,
                    "attributes": {
                        "POSITION": 0,
                        "COLOR_0": 1
                    }
                }
            ]
        }
    ],
    "nodes": [
        {
            "mesh": 0
        }
    ],
    "scenes": [
        {
            "nodes": [
                0
            ]
        }
    ],
    "scene": 0
}