{
    "asset": {
        "version": "2.0",
        "generator": "Open Asset Import Library (assimp v5.0.639693989)"
    },
    "accessors": [
        {
            "bufferView": 0,
            "byteOffset": 0,
            "componentType": 5126,
            "count": 149902,
            "type": "VEC3",
            "max": [
                0.9589970707893372,
                1.2047566175460816,
                -0.40425002574920657
            ],
            "min": [
                -0.8723474740982056,
                -0.822454035282135,
                -1.9171251058578492
            ]
        },
        {
            "bufferView": 1,
            "byteOffset": 0,
            "componentType": 5126,
            "count": 149902,
            "type": "VEC4",
            "max": [
                0.9372549057006836,
                0.9411764740943909,
                0.9058823585510254,
                1.0
            ],
            "min": [
                0.0,
                0.0,
                0.0,
                1.0
            ]
        }
    ],
    "buffers": [
        {
            "byteLength": 4197256,
            "uri": "d3dqdtne33nt.bin"
        }
    ],
    "bufferViews": [
        {
            "buffer": 0,
            "byteOffset": 0,
            "byteLength": 1798824,
            "target": 34962
        },
        {
            "buffer": 0,
            "byteOffset": 1798824,
            "byteLength": 2398432,
            "target": 34962
        }
    ],
    "materials": [
        {
            "name": "material",
            "pbrMetallicRoughness": {
                "metallicFactor": 0.0
            }
        }
    ],
    "meshes": [
        {
            "primitives": [
                {
                    "mode": 0,
                    "material": 0,
                    "attributes": {
                        "POSITION": 0,
                        "COLOR_0": 1
                    }
                }
            ]
        }
    ],
    "nodes": [
        {
            "mesh": 0
        }
    ],
    "scenes": [
        {
            "nodes": [
                0
            ]
        }
    ],
    "scene": 0
}