{
    "asset": {
        "version": "2.0",
        "generator": "Open Asset Import Library (assimp v5.0.639693989)"
    },
    "accessors": [
        {
            "bufferView": 0,
            "byteOffset": 0,
            "componentType": 5126,
            "count": 63123,
            "type": "VEC3",
            "max": [
                0.9456626176834106,
                0.5006911158561707,
                -0.34800001978874209
            ],
            "min": [
                -0.4406612515449524,
                -1.3408087491989136,
                -1.9180001020431519
            ]
        },
        {
            "bufferView": 1,
            "byteOffset": 0,
            "componentType": 5126,
            "count": 63123,
            "type": "VEC4",
            "max": [
                0.9843137264251709,
                1.0,
                0.9960784316062927,
                1.0
            ],
            "min": [
                0.0,
                0.0117647061124444,
                0.0,
                1.0
            ]
        }
    ],
    "buffers": [
        {
            "byteLength": 1767444,
            "uri": "e8v026yzjepb.bin"
        }
    ],
    "bufferViews": [
        {
            "buffer": 0,
            "byteOffset": 0,
            "byteLength": 757476,
            "target": 34962
        },
        {
            "buffer": 0,
            "byteOffset": 757476,
            "byteLength": 1009968,
            "target": 34962
        }
    ],
    "materials": [
        {
            "name": "material",
            "pbrMetallicRoughness": {
                "metallicFactor": 0.0
            }
        }
    ],
    "meshes": [
        {
            "primitives": [
                {
                    "mode": 0,
                    "material": 0,
                    "attributes": {
                        "POSITION": 0,
                        "COLOR_0": 1
                    }
                }
            ]
        }
    ],
    "nodes": [
        {
            "mesh": 0
        }
    ],
    "scenes": [
        {
            "nodes": [
                0
            ]
        }
    ],
    "scene": 0
}