{
    "asset": {
        "version": "2.0",
        "generator": "Open Asset Import Library (assimp v5.0.639693989)"
    },
    "accessors": [
        {
            "bufferView": 0,
            "byteOffset": 0,
            "componentType": 5126,
            "count": 180425,
            "type": "VEC3",
            "max": [
                0.2588665783405304,
                0.4731501638889313,
                -0.16387499868869782
            ],
            "min": [
                -0.37453097105026247,
                -0.3079437017440796,
                -0.6857499480247498
            ]
        },
        {
            "bufferView": 1,
            "byteOffset": 0,
            "componentType": 5126,
            "count": 180425,
            "type": "VEC4",
            "max": [
                0.7450980544090271,
                0.7333333492279053,
                0.7490196228027344,
                1.0
            ],
            "min": [
                0.0,
                0.0,
                0.0,
                1.0
            ]
        }
    ],
    "buffers": [
        {
            "byteLength": 5051900,
            "uri": "o2vfg9y02kpl.bin"
        }
    ],
    "bufferViews": [
        {
            "buffer": 0,
            "byteOffset": 0,
            "byteLength": 2165100,
            "target": 34962
        },
        {
            "buffer": 0,
            "byteOffset": 2165100,
            "byteLength": 2886800,
            "target": 34962
        }
    ],
    "materials": [
        {
            "name": "material",
            "pbrMetallicRoughness": {
                "metallicFactor": 0.0
            }
        }
    ],
    "meshes": [
        {
            "primitives": [
                {
                    "mode": 0,
                    "material": 0,
                    "attributes": {
                        "POSITION": 0,
                        "COLOR_0": 1
                    }
                }
            ]
        }
    ],
    "nodes": [
        {
            "mesh": 0
        }
    ],
    "scenes": [
        {
            "nodes": [
                0
            ]
        }
    ],
    "scene": 0
}