{
    "asset": {
        "version": "2.0",
        "generator": "Open Asset Import Library (assimp v5.0.639693989)"
    },
    "accessors": [
        {
            "bufferView": 0,
            "byteOffset": 0,
            "componentType": 5126,
            "count": 113032,
            "type": "VEC3",
            "max": [
                0.3138647973537445,
                0.5276389718055725,
                -0.4072500169277191
            ],
            "min": [
                -0.41152313351631167,
                -0.4987005591392517,
                -0.8867500424385071
            ]
        },
        {
            "bufferView": 1,
            "byteOffset": 0,
            "componentType": 5126,
            "count": 113032,
            "type": "VEC4",
            "max": [
                0.9333333373069763,
                0.9882352948188782,
                0.9607843160629273,
                1.0
            ],
            "min": [
                0.0,
                0.0,
                0.0,
                1.0
            ]
        }
    ],
    "buffers": [
        {
            "byteLength": 3164896,
            "uri": "r041zg8sqvjn.bin"
        }
    ],
    "bufferViews": [
        {
            "buffer": 0,
            "byteOffset": 0,
            "byteLength": 1356384,
            "target": 34962
        },
        {
            "buffer": 0,
            "byteOffset": 1356384,
            "byteLength": 1808512,
            "target": 34962
        }
    ],
    "materials": [
        {
            "name": "material",
            "pbrMetallicRoughness": {
                "metallicFactor": 0.0
            }
        }
    ],
    "meshes": [
        {
            "primitives": [
                {
                    "mode": 0,
                    "material": 0,
                    "attributes": {
                        "POSITION": 0,
                        "COLOR_0": 1
                    }
                }
            ]
        }
    ],
    "nodes": [
        {
            "mesh": 0
        }
    ],
    "scenes": [
        {
            "nodes": [
                0
            ]
        }
    ],
    "scene": 0
}