{
    "asset": {
        "version": "2.0",
        "generator": "Open Asset Import Library (assimp v5.0.639693989)"
    },
    "accessors": [
        {
            "bufferView": 0,
            "byteOffset": 0,
            "componentType": 5126,
            "count": 140012,
            "type": "VEC3",
            "max": [
                0.14803139865398408,
                0.302677184343338,
                -0.15287499129772187
            ],
            "min": [
                -0.1623983532190323,
                -0.2008192241191864,
                -0.531624972820282
            ]
        },
        {
            "bufferView": 1,
            "byteOffset": 0,
            "componentType": 5126,
            "count": 140012,
            "type": "VEC4",
            "max": [
                0.8666666746139526,
                0.8039215803146362,
                0.7647058963775635,
                1.0
            ],
            "min": [
                0.0,
                0.0,
                0.0,
                1.0
            ]
        }
    ],
    "buffers": [
        {
            "byteLength": 3920336,
            "uri": "ybbm2tul8f1c.bin"
        }
    ],
    "bufferViews": [
        {
            "buffer": 0,
            "byteOffset": 0,
            "byteLength": 1680144,
            "target": 34962
        },
        {
            "buffer": 0,
            "byteOffset": 1680144,
            "byteLength": 2240192,
            "target": 34962
        }
    ],
    "materials": [
        {
            "name": "material",
            "pbrMetallicRoughness": {
                "metallicFactor": 0.0
            }
        }
    ],
    "meshes": [
        {
            "primitives": [
                {
                    "mode": 0,
                    "material": 0,
                    "attributes": {
                        "POSITION": 0,
                        "COLOR_0": 1
                    }
                }
            ]
        }
    ],
    "nodes": [
        {
            "mesh": 0
        }
    ],
    "scenes": [
        {
            "nodes": [
                0
            ]
        }
    ],
    "scene": 0
}